<?xml version="1.0" encoding="utf-8"?>
<!-- Generator: Adobe Illustrator 26.5.0, SVG Export Plug-In . SVG Version: 6.00 Build 0)  -->
<svg version="1.1" id="Layer_1" xmlns="http://www.w3.org/2000/svg" xmlns:xlink="http://www.w3.org/1999/xlink" x="0px" y="0px"
	 viewBox="0 0 72 72" style="enable-background:new 0 0 72 72;" xml:space="preserve">
<style type="text/css">
	.st0{fill:#AE841F;}
</style>
<g>
	<polygon class="st0" points="40.49,69.03 38.28,63.21 40.02,63.21 40.02,61.57 31.88,61.57 31.88,63.21 33.62,63.21 31.41,69.03 	
		"/>
	<circle class="st0" cx="35.95" cy="14.81" r="1.36"/>
	<path class="st0" d="M32.78,18.29c0.58,0.22,1.37,0.51,3.17,0.51c1.8,0,2.59-0.3,3.16-0.51c0.16-0.06,0.32-0.12,0.48-0.16
		l-1.99-1.99c-0.39,0.49-0.99,0.8-1.66,0.8c-0.7,0-1.32-0.34-1.71-0.86l-2.03,2.03C32.41,18.15,32.6,18.21,32.78,18.29z"/>
	<path class="st0" d="M50.35,26.3c-0.09-1.06-0.36-2.1-0.84-3.08c-0.12-0.24-0.26-0.49-0.41-0.72c-0.16-0.24-0.33-0.46-0.5-0.66
		c-0.35-0.42-0.79-0.81-1.25-1.12c-0.94-0.63-2.01-0.96-3.04-1.07c-0.52-0.06-1.03-0.06-1.54-0.03c-0.25,0.02-0.5,0.04-0.76,0.08
		c-0.02,0-0.04,0.01-0.07,0.01c-0.14-0.33-0.54-1.01-1.56-1.09c-1.02-0.04-1.36,0.78-4.42,0.78c-3.07,0-3.41-0.83-4.42-0.78
		c-1.02,0.08-1.42,0.76-1.56,1.09c-0.02,0-0.04-0.01-0.07-0.01c-0.25-0.04-0.5-0.06-0.76-0.08c-0.51-0.03-1.02-0.03-1.54,0.03
		c-1.03,0.11-2.11,0.43-3.04,1.07c-0.46,0.31-0.9,0.71-1.25,1.12c-0.17,0.2-0.35,0.42-0.5,0.66c-0.16,0.24-0.29,0.48-0.41,0.72
		c-0.48,0.98-0.75,2.02-0.84,3.08c-0.09,1.06,0.01,2.15,0.3,3.19c0.15,0.52,0.33,1.03,0.57,1.52c0.11,0.25,0.25,0.48,0.38,0.72
		c0.14,0.23,0.28,0.46,0.44,0.68c0.33,0.46,0.7,0.89,1.09,1.3c-0.42,1.23-0.7,2.88-0.7,5.1c0.07,5.21,0.03,16.12,8.31,22.03h3.9
		h0.23h3.9c8.28-5.91,8.24-16.81,8.31-22.03c0-2.22-0.28-3.87-0.7-5.1c0.39-0.4,0.76-0.83,1.09-1.3c0.16-0.21,0.3-0.45,0.44-0.68
		c0.13-0.24,0.27-0.47,0.38-0.72c0.24-0.48,0.42-1,0.57-1.52C50.34,28.45,50.44,27.36,50.35,26.3z M46.1,30.47
		c-0.13,0.15-0.26,0.3-0.4,0.44c-0.76-0.57-1.53-0.72-2.03-0.76c-1.07,3.68-4.13,6.34-7.71,6.34c-3.59,0-6.64-2.66-7.71-6.34
		c-0.5,0.04-1.27,0.2-2.03,0.76c-0.14-0.14-0.28-0.29-0.4-0.44c-0.94-1.12-1.46-2.54-1.45-4.02c0.01-0.74,0.14-1.49,0.41-2.15
		c0.14-0.34,0.29-0.61,0.5-0.91c0.21-0.29,0.43-0.52,0.7-0.74c0.53-0.42,1.21-0.71,1.96-0.85c0.37-0.07,0.75-0.1,1.14-0.11
		c1.31,0.11,2.23,0.33,2.94,0.71c0.44,0.23,0.76,0.64,0.87,1.13c0.4,1.63,0.82,5.5-3.68,6.47c0.99,3.22,3.64,5.53,6.76,5.53
		s5.77-2.31,6.76-5.53c-4.5-0.97-4.08-4.84-3.68-6.47c0.12-0.48,0.44-0.89,0.87-1.13c0.72-0.38,1.63-0.6,2.94-0.71
		c0.39,0.01,0.78,0.04,1.14,0.11c0.75,0.14,1.43,0.42,1.96,0.85c0.27,0.21,0.49,0.45,0.7,0.74c0.22,0.3,0.37,0.57,0.5,0.91
		c0.27,0.66,0.4,1.41,0.41,2.15C47.57,27.93,47.04,29.35,46.1,30.47z"/>
	<circle class="st0" cx="28.8" cy="5.34" r="0.35"/>
	<g>
		<path class="st0" d="M10.18,22.81l0.47-0.29l1.27-0.76c0.42-0.26,0.81-0.56,1.22-0.83l0.61-0.42c0.2-0.14,0.41-0.27,0.6-0.43
			l1.15-0.92c0.19-0.16,0.39-0.3,0.57-0.47l0.54-0.5l0.54-0.5c0.18-0.17,0.36-0.33,0.52-0.52l0.99-1.08c0.31-0.37,0.6-0.77,0.9-1.15
			c0.16-0.19,0.28-0.4,0.42-0.6l0.4-0.61c0.14-0.2,0.25-0.42,0.36-0.63l0.34-0.64c0.11-0.22,0.19-0.44,0.29-0.67
			c0.1-0.22,0.2-0.44,0.26-0.67c0.07-0.23,0.16-0.46,0.22-0.69l0.11-0.44c-2.01,1.47-4.83,4.06-8.3,8.61
			c-1.99,1.99-4.57,4.32-4.57,4.32S9.31,23.02,10.18,22.81z"/>
		<path class="st0" d="M31.88,12.15c-0.04-1.48-0.25-2.41-1.02-3.05c0.21-0.8,0.25-1.65,0.21-2.24c0.25,0.55,0.25,0.55,0.25,0.55
			s0.13-1.57-0.47-2.54c-0.59-0.97-2.16-2.37-7.32-1.73c1.06,1.14,2.54,2.67,2.54,2.67l-0.63,2.29c0,0-0.95,0.18-2.7,1.33
			c-0.02,0.14-0.04,0.29-0.07,0.43l-0.18,0.75c-0.07,0.25-0.15,0.49-0.23,0.73c-0.07,0.25-0.17,0.48-0.27,0.72
			c-0.1,0.23-0.19,0.47-0.3,0.7l-0.35,0.68c-0.12,0.23-0.23,0.46-0.37,0.67l-0.41,0.64c-0.14,0.21-0.27,0.43-0.43,0.63
			c-0.31,0.4-0.6,0.81-0.93,1.21l-1.01,1.13c-0.16,0.19-0.35,0.36-0.53,0.54l-0.55,0.52l-0.55,0.52c-0.18,0.17-0.39,0.32-0.58,0.49
			l-1.17,0.96c-0.19,0.17-0.4,0.3-0.61,0.45l-0.61,0.44c-0.41,0.29-0.81,0.59-1.24,0.86l-1.17,0.72c-2.2,2.22-3.62,3.88-3.62,3.88
			s-0.85,0.8-0.85,1.65c0,0.6,0.45,1.1,1.06,1.24l7.94-8.64c0.04-0.05,0.12-0.05,0.17-0.01c0.05,0.04,0.05,0.12,0.01,0.17l-7.2,8.55
			c0.61,0.41,1.02,0.64,1.74,0.04c0.85,0.08,1.52,0.21,2.88-1.61c1.35-1.82,5.92-7.57,5.92-7.57l-0.08,0.59l1.61-0.89l-0.47,0.68
			l2.54-1.23c0,0-0.68,2.88-0.63,3.17c0.04,0.25,0.72,0.38,0.72,0.38l0.3-0.55l-0.42-0.21c0,0,0.05-0.86,0.6-1.49
			c0.54-0.63,1.26-1.43,1.43-2.11L25.62,19l-0.63,2.33l0.63-0.08l0.51-1.48c0,0,1.1-1.06,1.57-2.07c0.72-0.38,1.31-0.72,1.82-1.23
			c-0.3,0.8-0.3,0.8-0.3,0.8s1.18-1.23,1.57-2.16c-0.04,0.63-0.04,0.85-0.04,0.85S31.88,13.8,31.88,12.15z M29.36,5.89
			c-0.81,0.62-1.73-0.3-1.11-1.11C29.06,4.16,29.98,5.08,29.36,5.89z"/>
	</g>
</g>
</svg>
