<?xml version="1.0" encoding="utf-8"?>
<!-- Generator: Adobe Illustrator 26.5.0, SVG Export Plug-In . SVG Version: 6.00 Build 0)  -->
<svg version="1.1" id="Layer_1" xmlns="http://www.w3.org/2000/svg" xmlns:xlink="http://www.w3.org/1999/xlink" x="0px" y="0px"
	 viewBox="0 0 72 72" style="enable-background:new 0 0 72 72;" xml:space="preserve">
<style type="text/css">
	.st0{fill:#003B4A;}
	.st1{fill:#1A5632;}
	.st2{fill:#702E3E;}
	.st3{fill:#AE841F;}
	.st4{fill:#B3DFD7;}
</style>
<g>
	<path class="st1" d="M39.28,35.39c-0.1,2.49-1.96,4.32-3,5.15c-0.16,0.13-0.38,0.14-0.54,0.01c-1.6-1.26-2.92-3.09-3.01-5.16
		c1.35-0.97,2.48-2.16,3.27-3.4C36.8,33.23,37.93,34.42,39.28,35.39L39.28,35.39z"/>
	<path class="st1" d="M29.14,41.33c-0.05-0.08-0.93-1.7-1.23-3.85c1.15-0.21,2.25-0.6,3.28-1.14c0.22,1.3,0.77,2.4,1.42,3.31
		c-0.56,0.88-1.93,1.7-2.47,1.98C29.79,41.8,29.33,41.7,29.14,41.33z"/>
	<path class="st1" d="M42.87,41.33c0.05-0.08,0.93-1.7,1.23-3.85c-1.15-0.21-2.25-0.6-3.28-1.14c-0.22,1.3-0.77,2.4-1.42,3.31
		c0.56,0.88,1.93,1.7,2.47,1.98C42.21,41.8,42.68,41.7,42.87,41.33z"/>
	<path class="st1" d="M40.42,42.7c-1.14,2.92-3.85,4.59-3.99,4.67c-0.13,0.08-0.28,0.12-0.42,0.12c-0.15,0-0.29-0.04-0.42-0.12
		c-0.14-0.08-2.85-1.75-3.99-4.67c0.75-0.46,1.49-1.04,2.1-1.78c0.95,0.95,1.81,1.48,1.89,1.53c0.13,0.08,0.28,0.12,0.42,0.12
		c0.15,0,0.29-0.04,0.42-0.12c0.08-0.05,0.94-0.58,1.89-1.53C38.93,41.66,39.67,42.24,40.42,42.7L40.42,42.7z"/>
	<path class="st1" d="M45.85,35.89c0,0.04-0.01,0.07-0.01,0.11c-4.09-0.01-7.82-3.09-9.08-6.06c-0.13-0.31-0.43-0.52-0.83-0.49
		c-0.28,0.02-0.55,0.16-0.69,0.49c-1.25,2.98-4.99,6.05-9.08,6.06c-0.01-0.01-0.01-0.01-0.02-0.02c0.35-4.83,3.57-8.63,7.78-9.59
		c0.25-0.06,0.43-0.27,0.43-0.52v-0.71c0-0.36,0.29-0.65,0.65-0.65H37c0.36,0,0.65,0.29,0.65,0.65v0.71c0,0.26,0.18,0.47,0.43,0.53
		C42.26,27.34,45.46,31.1,45.85,35.89L45.85,35.89z"/>
</g>
</svg>
