<?xml version="1.0" encoding="utf-8"?>
<!-- Generator: Adobe Illustrator 28.0.0, SVG Export Plug-In . SVG Version: 6.00 Build 0)  -->
<svg version="1.1" id="Layer_1" xmlns="http://www.w3.org/2000/svg" xmlns:xlink="http://www.w3.org/1999/xlink" x="0px" y="0px"
	 viewBox="0 0 72 72" style="enable-background:new 0 0 72 72;" xml:space="preserve">
<style type="text/css">
	.st0{fill:#003B4A;}
	.st1{fill:#1A5632;}
	.st2{fill:#702E3E;}
	.st3{fill:#AE841F;}
	.st4{fill:#B3DFD7;}
	.st5{fill:#FFFFFF;}
	.st6{fill:#591A1A;}
	.st7{fill:#EE3E23;}
	.st8{fill:#38773A;}
</style>
<path class="st7" d="M44.57,38.45l-2.29-1.66l-0.65-0.47l-2-1.45l-2.77-2.01l-0.83-0.6l-0.86-0.62l-4.94-3.57l-1.63-1.18
	c-0.25,0.28-0.49,0.58-0.72,0.89c-0.23,0.31-0.43,0.63-0.62,0.96c-0.41,0.72-0.73,1.46-0.97,2.23c-0.07,0.21-0.12,0.43-0.18,0.65
	c-0.25,1.04-0.35,2.11-0.29,3.16c0.02,0.43,0.08,0.86,0.15,1.28c0.05,0.26,0.1,0.52,0.17,0.78c0.02,0.06,0.02,0.13,0.04,0.19
	c0.54,1.99,1.63,3.84,3.25,5.28c0.01,0.01,0.02,0.01,0.02,0.02c0.27,0.24,0.56,0.48,0.87,0.7c0.08,0.06,0.17,0.1,0.25,0.16
	c0.23,0.16,0.47,0.32,0.71,0.46c1.88,1.08,3.98,1.55,6.04,1.43c0.76-0.04,1.52-0.16,2.25-0.36c1.99-0.54,3.84-1.63,5.28-3.25
	c0.2-0.22,0.38-0.46,0.57-0.7c0.05-0.06,0.1-0.12,0.15-0.19c0.17-0.23,0.31-0.47,0.46-0.71c0.05-0.08,0.11-0.16,0.16-0.25
	L44.57,38.45z M28.01,32.25c0.05-0.22,0.1-0.43,0.17-0.64c0.17-0.58,0.41-1.14,0.7-1.68l3.23,2.34l0.99,0.72l0.72,0.52l-6.02,0.97
	C27.78,33.72,27.85,32.98,28.01,32.25z M30.61,40.69c-0.95-0.89-1.65-1.96-2.13-3.11c-0.1-0.25-0.2-0.5-0.28-0.76
	c-0.01-0.04-0.03-0.07-0.04-0.11l6.02-0.97l-1.28,1.77l-0.47,0.65L30.61,40.69z M34.22,42.75c-0.6-0.18-1.19-0.41-1.76-0.72
	l2.78-3.84l0.5-0.69l0.3-0.41l0.06,0.39l0.11,0.66l0.72,4.48L37,43.11C36.07,43.14,35.13,43.02,34.22,42.75z M41.91,41.43
	c-0.82,0.58-1.71,1.04-2.65,1.31l-0.08-0.48l-0.71-4.4l-0.11-0.65l-0.08-0.49l0.55,0.4l0.72,0.52l3.67,2.66
	C42.83,40.73,42.38,41.1,41.91,41.43z"/>
</svg>
