<?xml version="1.0" encoding="utf-8"?>
<!-- Generator: Adobe Illustrator 26.5.0, SVG Export Plug-In . SVG Version: 6.00 Build 0)  -->
<svg version="1.1" id="Layer_1" xmlns="http://www.w3.org/2000/svg" xmlns:xlink="http://www.w3.org/1999/xlink" x="0px" y="0px"
	 viewBox="0 0 72 72" style="enable-background:new 0 0 72 72;" xml:space="preserve">
<style type="text/css">
	.st0{fill:#003B4A;}
	.st1{fill:#1A5632;}
	.st2{fill:#702E3E;}
	.st3{fill:#AE841F;}
	.st4{fill:#B3DFD7;}
</style>
<g>
	<circle class="st2" cx="36" cy="36" r="1.16"/>
	<path class="st2" d="M36.98,39.34c0.85,0.72,2.19,0.2,2.9-0.09l0.07-0.03c0.43-0.17,0.82-0.26,1.11-0.3
		c-0.11-0.27-0.22-0.65-0.29-1.11l-0.01-0.08c-0.11-0.76-0.32-2.18-1.38-2.56c-0.46-0.16-0.96-0.09-1.36,0.17
		c-0.01,0.07-0.02,0.14-0.04,0.23c-0.06,0.28-0.06,0.58,0,0.86c0.02,0.1,0.03,0.19,0.04,0.26c0.03,0.18,0.07,0.32,0.11,0.42
		c0.03,0.08-0.02,0.16-0.1,0.17c-0.11,0.02-0.26,0.05-0.42,0.11c-0.07,0.03-0.15,0.06-0.25,0.09c-0.27,0.09-0.53,0.24-0.75,0.43
		c-0.07,0.06-0.13,0.1-0.18,0.15C36.42,38.55,36.61,39.02,36.98,39.34z"/>
	<path class="st2" d="M34.43,34.58c0.06-0.02,0.13-0.05,0.21-0.08c0.27-0.09,0.53-0.24,0.75-0.43c0.08-0.07,0.15-0.13,0.21-0.17
		c0.14-0.11,0.24-0.22,0.31-0.31c0.05-0.06,0.15-0.06,0.2,0c0.07,0.08,0.17,0.2,0.31,0.31c0.06,0.05,0.13,0.1,0.21,0.17
		c0.22,0.19,0.47,0.34,0.75,0.43c0.08,0.03,0.15,0.05,0.21,0.08c0.43-0.22,0.74-0.62,0.83-1.1c0.2-1.1-0.92-1.99-1.53-2.47
		l-0.06-0.05c-0.36-0.29-0.63-0.58-0.81-0.81c-0.18,0.23-0.45,0.52-0.81,0.81L35.12,31c-0.6,0.48-1.73,1.37-1.53,2.47
		C33.69,33.96,34,34.36,34.43,34.58z"/>
	<path class="st2" d="M37.42,30.53c0.7,0.56,1.94,1.63,1.68,3.07c-0.03,0.15-0.07,0.3-0.13,0.44c0.83-0.45,1.83-0.54,2.75-0.2
		c0.73,0.27,1.27,0.76,1.66,1.34c0.23-0.7,0.33-1.4,0.41-1.91l0.02-0.12c0.13-0.86,0.37-1.54,0.55-1.97
		c-0.46-0.05-1.17-0.19-1.98-0.5l-0.12-0.05c-1.18-0.46-3.37-1.33-4.81-0.12C37.44,30.52,37.43,30.53,37.42,30.53z"/>
	<path class="st2" d="M32.9,33.59c-0.27-1.51,1.12-2.61,1.79-3.14l0.06-0.05c0.64-0.51,0.94-1.04,0.95-1.04
		c0.06-0.11,0.18-0.18,0.31-0.18c0,0,0,0,0,0c0.13,0,0.24,0.07,0.31,0.18c0,0,0.19,0.32,0.57,0.71c0.04-0.03,0.07-0.07,0.11-0.1
		c0.6-0.5,1.29-0.72,1.98-0.77c-0.49-0.54-1.05-0.99-1.45-1.31l-0.1-0.08c-0.68-0.54-1.15-1.09-1.42-1.46
		c-0.28,0.37-0.75,0.92-1.42,1.46l-0.1,0.08c-0.99,0.79-2.83,2.25-2.51,4.11C32.08,32.65,32.42,33.2,32.9,33.59z"/>
	<path class="st2" d="M32.62,35.18c-1.05,0.37-1.26,1.8-1.38,2.56l-0.01,0.08c-0.07,0.46-0.19,0.83-0.29,1.11
		c0.29,0.04,0.68,0.13,1.11,0.3l0.07,0.03c0.72,0.28,2.05,0.81,2.9,0.09c0.37-0.32,0.56-0.79,0.54-1.27
		c-0.05-0.04-0.11-0.09-0.17-0.14c-0.22-0.19-0.47-0.34-0.75-0.43c-0.1-0.03-0.18-0.07-0.25-0.09c-0.17-0.06-0.31-0.1-0.42-0.11
		c-0.08-0.01-0.13-0.1-0.1-0.17c0.04-0.1,0.09-0.24,0.11-0.42c0.01-0.07,0.02-0.17,0.04-0.27c0.06-0.28,0.06-0.58,0-0.86
		c-0.02-0.08-0.03-0.15-0.04-0.22C33.58,35.08,33.08,35.01,32.62,35.18z"/>
	<path class="st2" d="M35.46,39.89c-0.46,0.39-1,0.52-1.53,0.52c-0.81,0-1.6-0.31-2.08-0.5l-0.07-0.03c-0.76-0.3-1.36-0.3-1.37-0.3
		h0c0,0,0,0,0,0c-0.13,0-0.24-0.07-0.31-0.18c-0.06-0.11-0.06-0.25,0-0.36c0,0,0.18-0.32,0.32-0.84c-0.05-0.01-0.1-0.03-0.14-0.05
		c-0.73-0.27-1.27-0.76-1.66-1.34c-0.23,0.7-0.33,1.4-0.41,1.91l-0.02,0.12c-0.13,0.86-0.37,1.54-0.55,1.97
		c0.46,0.05,1.17,0.19,1.98,0.5l0.12,0.05c1.18,0.46,3.37,1.33,4.81,0.12C35.06,41.07,35.36,40.5,35.46,39.89z"/>
	<path class="st2" d="M43.78,38.73c-0.19-1.25-0.53-3.58-2.3-4.23c-0.61-0.22-1.25-0.2-1.83,0.01c1.43,0.53,1.69,2.27,1.82,3.11
		l0.01,0.08c0,0,0,0,0,0c0.12,0.81,0.42,1.34,0.43,1.34c0.06,0.11,0.06,0.25,0,0.36c-0.06,0.11-0.18,0.18-0.31,0.18c0,0,0,0,0,0
		c-0.01,0-0.38,0-0.9,0.14c0.01,0.05,0.02,0.1,0.03,0.15c0.13,0.77-0.02,1.48-0.33,2.1c0.72-0.15,1.38-0.42,1.86-0.6l0.12-0.05
		c0.81-0.32,1.52-0.45,1.98-0.5c-0.18-0.43-0.42-1.11-0.55-1.96L43.78,38.73z"/>
	<path class="st2" d="M28.22,33.27c0.19,1.25,0.53,3.58,2.3,4.23c0.01,0,0.02,0.01,0.03,0.01c0.13-0.88,0.44-2.5,1.82-3
		c0.14-0.05,0.29-0.08,0.44-0.1c-0.8-0.5-1.38-1.31-1.55-2.28c-0.13-0.77,0.02-1.48,0.33-2.1c-0.72,0.15-1.38,0.41-1.86,0.6
		l-0.12,0.05c-0.81,0.32-1.52,0.45-1.98,0.5c0.18,0.43,0.42,1.11,0.55,1.96L28.22,33.27z"/>
	<path class="st2" d="M40.02,39.96c-0.48,0.19-1.21,0.45-1.96,0.45c-0.53,0-1.08-0.14-1.55-0.53c-0.12-0.1-0.22-0.21-0.31-0.33
		c-0.03,0.94-0.44,1.85-1.2,2.49c-0.6,0.5-1.29,0.72-1.98,0.77c0.49,0.54,1.05,0.99,1.45,1.31l0.1,0.08
		c0.68,0.54,1.15,1.09,1.42,1.46c0.28-0.37,0.75-0.92,1.42-1.46l0.1-0.08c0.99-0.79,2.83-2.25,2.51-4.11
		C40.03,39.98,40.03,39.97,40.02,39.96z"/>
</g>
</svg>
