<?xml version="1.0" encoding="utf-8"?>
<!-- Generator: Adobe Illustrator 28.0.0, SVG Export Plug-In . SVG Version: 6.00 Build 0)  -->
<svg version="1.1" id="Layer_1" xmlns="http://www.w3.org/2000/svg" xmlns:xlink="http://www.w3.org/1999/xlink" x="0px" y="0px"
	 viewBox="0 0 72 72" style="enable-background:new 0 0 72 72;" xml:space="preserve">
<style type="text/css">
	.st0{fill:#003B4A;}
	.st1{fill:#1A5632;}
	.st2{fill:#702E3E;}
	.st3{fill:#AE841F;}
	.st4{fill:#B3DFD7;}
	.st5{fill:#FFFFFF;}
	.st6{fill:#591A1A;}
	.st7{fill:#EE3E23;}
	.st8{fill:#38773A;}
</style>
<g>
	<path class="st8" d="M30.18,38.36c0-2.93,1.4-5.46,3.42-6.59c0.36-0.2,0.66-0.51,0.88-0.86l0.41-0.66
		c0.24-0.38,0.66-0.62,1.11-0.62h0c0.45,0,0.87,0.23,1.11,0.62l0.41,0.66c0.22,0.35,0.52,0.66,0.88,0.86
		c2.02,1.14,3.42,3.66,3.42,6.59c0,2.93-1.4,5.46-3.42,6.59c-0.36,0.2-0.66,0.51-0.88,0.86l-0.41,0.66
		c-0.24,0.38-0.66,0.62-1.11,0.62h0c-0.45,0-0.87-0.23-1.11-0.62l-0.41-0.66c-0.22-0.35-0.52-0.66-0.88-0.86
		C31.58,43.81,30.18,41.29,30.18,38.36z"/>
	<path class="st8" d="M32.68,28.16c1.12,1.22,3.16,1.17,3.16,1.17s0.23-2.03-0.89-3.25c-1.12-1.22-3.16-1.17-3.16-1.17
		S31.56,26.94,32.68,28.16z"/>
	<path class="st8" d="M37.75,28.93c0.53-0.49,0.51-1.38,0.51-1.38s-0.89-0.1-1.42,0.39c-0.53,0.49-0.51,1.38-0.51,1.38
		S37.22,29.42,37.75,28.93z"/>
</g>
</svg>
