<?xml version="1.0" encoding="utf-8"?>
<!-- Generator: Adobe Illustrator 28.0.0, SVG Export Plug-In . SVG Version: 6.00 Build 0)  -->
<svg version="1.1" id="Layer_1" xmlns="http://www.w3.org/2000/svg" xmlns:xlink="http://www.w3.org/1999/xlink" x="0px" y="0px"
	 viewBox="0 0 72 72" style="enable-background:new 0 0 72 72;" xml:space="preserve">
<style type="text/css">
	.st0{fill:#003B4A;}
	.st1{fill:#1A5632;}
	.st2{fill:#702E3E;}
	.st3{fill:#AE841F;}
	.st4{fill:#B3DFD7;}
	.st5{fill:#FFFFFF;}
	.st6{fill:#591A1A;}
	.st7{fill:#EE3E23;}
	.st8{fill:#38773A;}
</style>
<g>
	<path class="st6" d="M33.01,34.94c0.1,0.3,0.22,0.6,0.37,0.89c0.68,0.03,1.34,0.21,1.93,0.52c-0.02-0.26-0.02-0.73,0.1-1.4
		c0.03-0.18,0.07-0.37,0.12-0.58c0.09-0.38,0.22-0.81,0.39-1.3c0.88-2.48-0.05-5.18-0.05-5.18s1.63,2.83,1.04,4.91
		c-0.15,0.52-0.32,1.03-0.47,1.51c-0.06,0.2-0.13,0.4-0.18,0.59c-0.2,0.68-0.35,1.3-0.34,1.82c0.11,0.08,0.22,0.17,0.32,0.26
		c0.39,0.34,0.72,0.75,0.97,1.22c0.44-0.29,0.82-0.66,1.09-1.16c0.19-0.32,0.33-0.67,0.44-1.03c0.14-0.48,0.23-0.99,0.27-1.51
		c0.02-0.2,0.03-0.4,0.04-0.6c0-0.02,0-0.04,0-0.05c0.11-2.01-0.33-3.92-1.7-5.41c-0.3-0.36-0.62-0.71-0.92-1.06
		c-0.31-0.31-1-1.32-1.07-0.75c0,2.81-1.09,3.36-2.2,5.65c-0.33,0.71-0.39,1.4-0.28,2.07C32.9,34.55,32.95,34.75,33.01,34.94z"/>
	<path class="st6" d="M43.56,34.14c-0.25-0.31-0.88,0.24-1.24,0.43c-0.47,0.31-0.94,0.64-1.42,0.92c-0.59,0.37-1.24,0.64-1.9,0.84
		c-0.11,0.36-0.25,0.71-0.44,1.03c-0.15,0.28-0.34,0.52-0.56,0.73c-0.16,0.16-0.34,0.3-0.53,0.43c0.03,0.06,0.06,0.12,0.08,0.18
		c0.01,0.02,0.01,0.03,0.02,0.05c0.06,0.12,0.12,0.23,0.17,0.36c0.23-0.08,0.76-0.28,1.43-0.66c0.06-0.03,0.12-0.07,0.18-0.11
		c0.41-0.25,0.87-0.56,1.35-0.95c0.74-0.61,1.52-1.41,2.24-2.47c0,0-0.27,0.93-1.19,2.07c-0.22,0.27-0.48,0.55-0.78,0.84
		c-0.05,0.04-0.08,0.09-0.13,0.13c-0.33,0.3-0.72,0.61-1.15,0.9c-0.5,0.34-1.07,0.66-1.73,0.94c0.05,0.22,0.08,0.44,0.09,0.65
		c0.26-0.04,0.52-0.09,0.78-0.15c1.05-0.26,2.01-0.82,2.92-1.42c0.4-0.27,0.79-0.57,1.12-0.93c0.12-0.12,0.21-0.25,0.3-0.38
		c0.14-0.21,0.24-0.43,0.32-0.66c0.01-0.03,0.02-0.06,0.03-0.1c0.06-0.19,0.1-0.38,0.13-0.58c0.04-0.32,0.05-0.64,0.05-0.97
		C43.68,34.94,43.7,34.33,43.56,34.14z"/>
	<path class="st6" d="M37.3,39.51c-0.02-0.06-0.04-0.12-0.07-0.18c-0.07-0.17-0.14-0.34-0.22-0.51c-0.01-0.01-0.01-0.03-0.02-0.04
		c-0.01-0.03-0.02-0.05-0.04-0.08c-0.08-0.15-0.19-0.29-0.28-0.42c-0.21-0.29-0.43-0.56-0.69-0.79c-0.78-0.69-1.79-1.11-2.85-1.16
		c-0.54-0.02-1.09,0.05-1.63,0.22c-0.79,0.26-1.46,0.71-1.98,1.28c-0.13,0.14-0.24,0.29-0.35,0.44c-0.01,0.02-0.03,0.04-0.04,0.05
		c-0.1,0.15-0.19,0.3-0.27,0.45c-0.51,0.97-0.68,2.12-0.4,3.26c0.03,0.11,0.05,0.21,0.09,0.32c0.03,0.09,0.07,0.19,0.11,0.28
		c0.01,0.03,0.02,0.06,0.03,0.08c0.09,0.22,0.2,0.43,0.33,0.63c1.09,1.77,3.28,2.64,5.34,1.97c0.83-0.27,1.53-0.76,2.06-1.38
		c0.15-0.18,0.3-0.37,0.42-0.57c0.01-0.02,0.02-0.03,0.03-0.05c0.11-0.18,0.21-0.37,0.3-0.57c0.28-0.66,0.42-1.39,0.37-2.12
		C37.49,40.25,37.42,39.88,37.3,39.51z M35.27,40.5c-0.58,0.19-1.21-0.13-1.4-0.71c-0.03-0.1-0.05-0.2-0.05-0.31
		c-0.01-0.19,0.03-0.37,0.11-0.53c0.01-0.02,0.02-0.03,0.03-0.05c0.13-0.23,0.34-0.43,0.62-0.52c0.02-0.01,0.05-0.01,0.07-0.01
		c0.17-0.04,0.35-0.05,0.52-0.01c0.29,0.07,0.54,0.24,0.7,0.5c0.01,0.02,0.02,0.03,0.03,0.04c0.03,0.06,0.06,0.12,0.08,0.19
		c0.04,0.11,0.05,0.22,0.05,0.33C36.04,39.91,35.74,40.35,35.27,40.5z"/>
</g>
</svg>
