<?xml version="1.0" encoding="utf-8"?>
<!-- Generator: Adobe Illustrator 26.5.0, SVG Export Plug-In . SVG Version: 6.00 Build 0)  -->
<svg version="1.1" id="Layer_1" xmlns="http://www.w3.org/2000/svg" xmlns:xlink="http://www.w3.org/1999/xlink" x="0px" y="0px"
	 viewBox="0 0 72 72" style="enable-background:new 0 0 72 72;" xml:space="preserve">
<style type="text/css">
	.st0{fill:#003B4A;}
	.st1{fill:#1A5632;}
	.st2{fill:#702E3E;}
	.st3{fill:#AE841F;}
	.st4{fill:#B3DFD7;}
</style>
<g>
	<path class="st3" d="M42.87,38.78c0-3.46-1.66-6.44-4.04-7.78c-0.43-0.24-0.78-0.6-1.04-1.01l-0.48-0.78
		c-0.28-0.45-0.78-0.73-1.31-0.73h0c-0.53,0-1.03,0.28-1.31,0.73l-0.48,0.78c-0.26,0.42-0.61,0.77-1.04,1.01
		c-2.38,1.34-4.04,4.32-4.04,7.78c0,3.46,1.66,6.44,4.04,7.78c0.43,0.24,0.78,0.6,1.04,1.01l0.48,0.78
		c0.28,0.45,0.78,0.73,1.31,0.73h0c0.53,0,1.03-0.28,1.31-0.73l0.48-0.78c0.26-0.42,0.61-0.77,1.04-1.01
		C41.21,45.22,42.87,42.24,42.87,38.78z"/>
	<path class="st3" d="M39.92,26.74c-1.32,1.44-3.72,1.38-3.72,1.38s-0.27-2.39,1.05-3.83c1.32-1.44,3.72-1.38,3.72-1.38
		S41.24,25.3,39.92,26.74z"/>
	<path class="st3" d="M33.93,27.65c-0.63-0.58-0.61-1.63-0.61-1.63s1.05-0.12,1.68,0.46c0.63,0.58,0.61,1.63,0.61,1.63
		S34.56,28.23,33.93,27.65z"/>
</g>
</svg>
