<?xml version="1.0" encoding="utf-8"?>
<!-- Generator: Adobe Illustrator 26.5.0, SVG Export Plug-In . SVG Version: 6.00 Build 0)  -->
<svg version="1.1" id="Layer_1" xmlns="http://www.w3.org/2000/svg" xmlns:xlink="http://www.w3.org/1999/xlink" x="0px" y="0px"
	 viewBox="0 0 288 174.69" style="enable-background:new 0 0 288 174.69;" xml:space="preserve">
<style type="text/css">
	.st0{fill:#003B4A;}
</style>
<g>
	<g>
		<g>
			<path class="st0" d="M103.13,122.48c-2.69,1.7-4.43-0.99-3.24-2.26c1.19-1.27,2.64-1.09,4.5-2.23c1.86-1.15,2.11-3.17,1.82-4.36
				c-0.29-1.19,1.48-2.34,3-2.95c1.52-0.6,4.67-2.18,4.34-5.67c0,0-32.79,15.7-31.78,28.97c0.01,0.08,0.09,0.13,0.16,0.1
				c8.68-3.73,21.44-8.94,26.03-9.69c0.29-0.05,0.4-0.39,0.21-0.6C107.24,122.76,105.24,121.15,103.13,122.48z"/>
			<path class="st0" d="M109.2,125.65c0.05-0.42-0.34-0.75-0.74-0.63c-5.88,1.7-22.09,8.08-25.29,9.35
				c-0.1,0.04-0.06,0.19,0.04,0.18c9.85-0.76,21.72-5.42,24.32-7.02C108.5,126.92,109.12,126.29,109.2,125.65z"/>
			<path class="st0" d="M162.67,124.12c-1.09,0.01-1.74-0.3-1.69-0.97c0.05-0.62,0.72-1,1.69-0.69c1.06,0.35,2.73-0.11,2.24-1.42
				c-0.1-0.27-0.38-0.44-0.66-0.41c-0.64,0.05-1.71,0.24-2.68,0.34c-1.32,0.13-2.6,1.29-3.98,1.62c-1.39,0.33-3.19,0.15-4.27-0.24
				c-1.08-0.39-3.45-1.35-6.7-1.01c0,0,4.24-1.57,6.2-1.45c1.18,0.07,2.45,0.37,3.44,0.75c1.33,0.5,2.87-0.47,3.46-1.76
				c0.53-1.16,0.63-1.8,0.26-3.32c1.55,2.25,0.51,3-0.08,4.44c-0.14,0.33,0.21,0.65,0.54,0.5c0.8-0.37,1.93-0.68,2.95-0.82
				c0.47-0.06,0.78-0.54,0.63-0.99c-0.76-2.3-0.08-4.08,0.55-5.83c-3.95-1.28-3.38-3.97-3.38-3.97c-1.14,0.48-1.92,1.54-2.46,2.66
				c-0.45,0.93-0.71,1.93-0.88,2.95c-0.56,3.51-2.99,3.29-4.02,3.34c-0.28,0.01-0.65-0.06-1.08-0.21c-2-0.71-3.41-2.48-3.83-4.55
				c-0.84-4.14-3.98-5.98-5.98-6.64c-0.3-0.1-0.51,0.3-0.25,0.49c7.88,5.55,2.05,12.14-2.48,11.05c2.4,1.99,7.08,0.76,8.2-0.68
				c-0.32,3.62-5.27,2.92-5.85,2.84c-1.31-0.18-3.92-0.39-3.92-0.39l-13.7-1.12c-0.5-0.04-0.81-0.57-0.6-1.03
				c0.9-1.92,2.9-6.17,3.44-6.86c0.7-0.9,2.34-0.95,2.71-0.2c2.85,5.66,7.51,5.73,7.51,5.73c-8.64-4.69-4.45-14.31-1.33-16.47
				c6.77-4.94,17.21-2.22,20.21-0.16c2.82,1.94,5.39,6.67,5.6,9.9c0.01,0.21,0.23,0.36,0.43,0.27c0,0,0,0,0,0
				c0.6-0.24,1.15-0.61,1.68-1.02c0.53-0.41,1-0.93,1.45-1.46l0.31-0.42l0.35-0.46c0.25-0.33,0.56-0.61,0.88-0.86
				c0.64-0.49,1.36-0.81,2.09-1.03c0.73-0.22,1.47-0.35,2.23-0.39c0.11-0.01,0.21,0.08,0.22,0.2c0.01,0.1-0.07,0.2-0.17,0.21
				l-0.01,0c-1.38,0.25-2.79,0.79-3.75,1.72c-0.23,0.23-0.45,0.48-0.6,0.76l-0.12,0.21l-0.14,0.25l-0.28,0.5
				c-0.42,0.65-0.86,1.29-1.42,1.86c-0.52,0.53-1.1,1.03-1.75,1.43c2.07,0.84,4.94-0.83,5.7-2.05c0.95-1.53,1.22-1.53,3.28-2.42
				c2.06-0.89,2.8-1.79,4.13-3.89c1.33-2.11,2.33-2.74,2.33-2.74s0.53-0.53,1.06-2.11c2.04-13.4-12.6-24.05-18.14-26.44
				c-6.07-2.8-12.71-0.19-16.44,2.44c-0.88,0.62-1.58,1.48-1.98,2.49c-2.62,6.61-7.2,10.15-9.43,11.14
				c-2.38,1.05-6.08,3.94-9.15,8.1c-5.24,6.42-11.15,8.91-11.15,8.91s0.06,1.32-0.13,2.31c-0.35,2.39-3.9,3.9-5.39,4.68
				c-1.49,0.78-1.89,1.4-1.66,2.31c0.03,0.13,0.07,0.48,0.09,0.62c0.2,1.44-0.52,2.84-1.73,3.64c-1.11,0.74-2.53,1.38-3.6,1.68
				c-1.53,0.43-1.65,1.43-0.95,2.06c0.7,0.63,2.08-0.21,3.29-0.77c1.21-0.56,2.67,0.07,3.22,0.49c0.56,0.42,1.42,1.12,1.9,1.62
				c0.6,0.63,1.85,0.1,2.42-0.04c2.86-0.69,7.82-1.88,8.34-1.99c0.73-0.15,3.76-0.03,6.2-0.82c1.97-0.64,6.21,0.3,7.85,0.6
				c0.44,0.08,1.15-0.28,2.09-0.16c2.55,0.32,5.57,0.74,6.02,0.83c0.62,0.12,3.23,0.45,4.65,0.79c1.43,0.35,1.9,0.84,1.73,1.22
				c-1.75,2.08-3.16,2.02-4.52,1.84c-1.02-0.14-3.24-0.83-3.11-1.72c0.06-0.46,0.44-0.78,0.79-0.98c0.17-0.1,0.12-0.35-0.07-0.37
				c-1.25-0.16-3.82-0.49-4.66-0.61c-1.14-0.16-2,0.3-2.75,0.18c-0.75-0.12-2.83-0.51-4.34-0.69c-1.51-0.18-3.03,0.08-3.69,0.15
				c-0.66,0.06-2.06,0.49-3.69,0.61c-1.63,0.11-4.49,0.28-7.61,1.11c-3.12,0.82-5.16,1.37-5.16,1.37c0.57,0.57,0.34,1.38,0.01,2.01
				c-0.15,0.29,0.12,0.62,0.43,0.52c2.39-0.81,8.54-2.51,14.38-1.1c4.82,1.16,13.87,0.73,16.09,0.81c2.22,0.09,10.86,0.99,12.5,1.27
				c4.48,0.75,7.31-2.49,9.82-3.23c0.25-0.07,0.41-0.34,0.33-0.59C163.12,124.25,162.98,124.12,162.67,124.12z M131.43,98.44
				c0.35-0.48,0.83-0.84,1.3-1.13l0.36-0.21l0.33-0.17c0.22-0.12,0.43-0.24,0.64-0.37c0.84-0.52,1.55-1.17,2.21-1.94l1.02-1.16
				c0.35-0.38,0.72-0.75,1.1-1.11c0.41-0.36,0.87-0.68,1.37-0.88c0.5-0.2,1.02-0.34,1.55-0.38c1.05-0.08,2.1,0.04,3.08,0.36
				c-1.01-0.19-2.05-0.22-3.03-0.03c-0.49,0.1-0.96,0.26-1.4,0.47c-0.44,0.22-0.81,0.53-1.14,0.87c-0.68,0.75-1.28,1.56-1.92,2.38
				c-0.63,0.83-1.4,1.63-2.29,2.24c-0.22,0.15-0.44,0.31-0.67,0.44l-0.34,0.21l-0.3,0.19c-0.39,0.25-0.73,0.55-1,0.9
				c-0.27,0.34-0.45,0.73-0.55,1.15c-0.1,0.42-0.1,0.88-0.05,1.35c0.03,0.25,0.08,0.45,0.12,0.77c0.03,0.29,0.01,0.57-0.01,0.84
				c-0.05,0.55-0.17,1.08-0.36,1.59c-0.2,0.5-0.47,0.98-0.81,1.39c-0.35,0.41-0.76,0.75-1.22,0.99c0.76-0.7,1.26-1.6,1.46-2.56
				c0.11-0.47,0.16-0.96,0.15-1.44c-0.01-0.24-0.03-0.48-0.07-0.69c-0.04-0.18-0.13-0.47-0.19-0.74c-0.11-0.54-0.17-1.13-0.06-1.72
				C130.81,99.48,131.07,98.91,131.43,98.44z M112.24,117.4c-1.01-0.63-2-1.64-2.78-3.27c-0.15-0.31-0.02-0.68,0.29-0.83
				c0.49-0.24,2.02-0.41,3.14-1.57c1.85-1.91,3.27-4.22,5.65-4.84c2.09-0.54,6.12,0.63,5.73,4.51c-0.12,1.17-0.64,2.25-1.42,3.12
				c-1.06,1.18-2.88,2.69-5.31,3.46C115.77,118.55,113.82,118.38,112.24,117.4z"/>
		</g>
		<path class="st0" d="M142.93,76.32c0,0-4.02,8.74-9.53,10.92c-1.29,0.64-6.22,4.14-8.2,7.77c0.17-1.77,0.52-3.15,3.88-6.43
			c3.36-3.27,5.45-5.04,6.81-7C137.26,79.62,139.84,76.89,142.93,76.32z"/>
		<path class="st0" d="M179.72,100.88c0,0-1.32,1.22-2.42,3.21c-0.71,1-1.91,2.47-3.71,3.37c-0.97,0.48-2.09,0.97-2.42,1.45
			c2.05,0.05,2.25,0.48,2.76,1.03c0.51,0.55,4.44-0.76,4.74-3.88C178.81,103.74,179.04,102.42,179.72,100.88z"/>
	</g>
	<g>
		<g>
			<path class="st0" d="M50.55,87.61l-4.37,9.23L37.82,96c-1.95,4.11-3.84,8.12-5.77,12.17c0,0,4.52,4.55,5.94,5.96l-1.13,2.38
				L8.65,88.5l1.89-3.99L50.55,87.61z M35,95.6l-17.16-1.61c-0.07,0.17,0.08-0.11,0.01,0.07c4,3.88,7.9,7.99,12.15,12.11L35,95.6z"
				/>
			<path class="st0" d="M58.88,28.64l15.33,18.91c5.28,6.51,5.51,12.45-1.49,18.13c-6.5,5.27-13.02,4.43-18.27-2.05L39.09,44.68
				l6.86-5.57l15.98,19.69c3.37,4.16,6.88,5.68,10.69,2.59c3.47-2.81,3.06-6.84-0.31-11L56.34,30.7L58.88,28.64z"/>
			<path class="st0" d="M131.08,23.02c2.49,12.5-3.66,19.65-12.54,21.42c-10.47,2.09-19.15-3.89-21.42-15.26
				c-2.42-12.13,4.84-19.99,14.35-21.89c5.47-1.09,9.39,0.46,11.6,1.73c-1.06,1.69-2.19,3.48-3.01,4.8
				c-0.31-0.35-3.28-4.85-8.06-3.9c-6.16,1.23-6.8,7.92-4.93,17.28c1.72,8.65,5.67,15.5,11.01,14.43c5.81-1.16,5.78-7.99,3.95-17.16
				l-10.08,2.01l-0.67-3.35l4.32-0.86c4.89-1.05,9.59-1.94,14.74-2.97L131.08,23.02z"/>
			<path class="st0" d="M190.08,14.33l-6.85,23.37c-2.36,8.04-7.12,11.61-15.77,9.07c-8.03-2.35-11.04-8.19-8.69-16.2l6.86-23.4
				l8.48,2.49l-7.12,24.34c-1.51,5.14-0.76,8.88,3.95,10.27c4.28,1.25,7.37-1.37,8.87-6.51l7.13-24.33L190.08,14.33z"/>
			<path class="st0" d="M213.67,74.31l4.13-17.75c-0.45-0.4-0.9-0.8-1.35-1.22l-10.75,11.58l-6.48-6.01l25.29-27.25l6.48,6.01l0,0
				c6.31,5.86,12.25,14.59,6.59,20.69c-3.65,3.93-8.15,3.57-12.69,1.23l-4.12,19.3L213.67,74.31z M217.97,53.71
				c5.22,4.84,9.86,4.77,13.21,1.16c3.64-3.92,3.2-8.51-1.95-13.29L217.97,53.71z"/>
			<path class="st0" d="M275.84,109.96L255.96,106l-18.72,7.31l-3.21-8.23l18.08-7.06l12.13-17.81l3.39,8.69l-9.94,14.46l16.86,3.3
				L275.84,109.96z"/>
		</g>
	</g>
	<g>
		<path class="st0" d="M26.31,168.94c-0.27,0.69-0.68,1.26-1.21,1.69c-0.76,0.61-1.56,0.94-2.47,1.03
			c-0.82,0.08-1.64,0.07-2.43,0.07c-0.41,0-0.83-0.01-1.24,0h-0.94c-1.05,0-2.74,0-3.7,0h0c-0.2,0-0.37,0-0.49,0l0,0h-0.55v-0.96
			h0.01l0-0.38c0-1.24,0-2.52,0.02-3.78c0-0.2,0.02-0.41,0.04-0.6c0.01-0.17,0.03-0.33,0.03-0.49c0.01-0.44,0.01-0.88,0.02-1.31
			l0-0.38c0-0.49,0-0.98,0.01-1.47c0-1.15,0-2.35,0.04-3.52c0.01-0.46,0.03-0.93,0.05-1.39c0-0.05,0-0.11,0.01-0.16h0v-1.13h0.77v0
			c0.64,0,2.4,0,3.15,0.01c0.68,0.01,1.38,0.01,2.05,0c0.54,0,1.1-0.01,1.66,0c0.74,0.01,1.44,0.11,2.08,0.31
			c1.04,0.33,1.86,1.05,2.43,2.15c0.38,0.74,0.55,1.5,0.4,2.24c-0.22,1.09-0.85,2.17-1.91,2.75c-0.01,0-0.01,0.01-0.02,0.02
			c0.01,0.01,0.02,0.01,0.03,0.02c0.06,0.04,1.63,0.71,2.13,1.82C26.74,166.56,26.78,167.72,26.31,168.94z M23.06,166.18
			c-0.34-0.5-0.84-1.02-1.54-1.05c-0.5-0.02-1.01-0.03-1.5-0.04l-0.25-0.01c-0.89-0.02-1.78-0.03-2.67-0.05l-0.34-0.01
			c-0.05,0-0.08,0-0.1,0c0,0.33-0.01,0.85-0.01,1.19c-0.01,0.74-0.02,1.58-0.02,2.36c0.05,0.01,0.09,0.02,0.13,0.02
			c0.69,0.01,1.38,0.01,2.08,0.01c0.94,0.01,1.9,0.01,2.85,0.02c0.01,0,0.01,0,0.02,0c0.64,0,1.11-0.3,1.43-0.9
			C23.43,167.2,23.4,166.68,23.06,166.18z M16.78,159.42l-0.07,2.89c0.05,0.01,0.1,0.02,0.14,0.02c0.54,0.01,1.08,0.02,1.61,0.02
			h0.03c0.4,0,0.8,0,1.21,0.01c0.45,0,0.9,0,1.35,0.01c0,0,0.01,0,0.01,0c0.51,0,0.94-0.29,1.31-0.7c0.42-0.47,0.36-1.18,0.13-1.68
			c-0.15-0.31-0.38-0.49-0.71-0.55c-0.26-0.04-0.53-0.07-0.81-0.09c-0.15-0.01-0.31-0.01-0.47-0.01c-0.08,0-0.16,0-0.24,0
			l-1.21-0.01c-0.63-0.01-1.26-0.01-1.88-0.02l-0.05,0c-0.12,0-0.22,0-0.33,0c0,0,0,0.01,0,0.01c0,0.02,0,0.03,0,0.05
			C16.78,159.38,16.78,159.4,16.78,159.42z"/>
		<path class="st0" d="M49.6,171.72h-0.21c-0.27,0-0.48,0-0.67,0c-0.14,0-0.27,0-0.42,0c-0.52,0-1.04-0.01-1.56-0.01
			c-0.77-0.01-1.56-0.01-2.34-0.01c-0.51,0-1.03,0.01-1.54,0.01c-0.4,0-0.8,0.01-1.2,0.01c-0.43,0-0.86,0.01-1.29,0.01
			c-0.56,0-1.13,0.01-1.7,0.01c-0.14,0-0.28,0-0.42,0c-0.04,0-0.08,0-0.13,0h-0.7v-2.1l0,0c0-0.21,0-0.42,0-0.63
			c0-0.4,0-0.79,0-1.19c0-0.76,0-1.5,0.01-2.24c0-0.77,0-1.55,0.01-2.35c0-0.66,0-1.33,0-2c0-0.69,0-1.39,0-2.08
			c0-0.6,0-1.21,0.01-1.8v-1.18h0.4c0.12-0.03,0.23-0.03,0.31-0.03c0.02,0,0.04,0,0.06,0c0.61,0,1.22,0,1.84,0c0.46,0,0.93,0,1.39,0
			c1.61,0,5.39,0,7.01,0c0.43,0,0.72,0,0.79,0c0.07,0,0.51,0.02,0.51,0.02v0.27c0.03,0.08,0.01,1.03,0,1.26v1.62h-1.08v0
			c-0.32,0.01-0.63,0.01-0.93,0.01c-0.7,0-1.39,0-2.09,0l-1.56,0c-0.75,0-1.5,0-2.25-0.01c-0.21,0-0.43,0-0.66,0.01
			c-0.06,0-0.2,0.01-0.27,0.02c-0.01,0.07-0.05,2.66-0.01,2.86c0.32,0.02,0.73,0.02,1.04,0.02c0.15,0,0.22,0,0.37,0
			c0.43,0.01,0.88,0,1.3,0l0.27,0c0.27,0,0.54,0,0.81-0.01c0.28,0,0.56,0,0.84-0.01c0.37,0,0.73,0,1.11,0l0.9,0
			c0,0,0.07,1.52,0.02,1.86c0,0.02,0,0.02,0,0.02c0,0,0,0.01,0,0.01c0,0.06,0,0.12,0,0.19l0,0.06c0,0.12-0.01,0.25-0.04,0.38
			l-0.04,0.48H46.5l0,0c-0.21,0-0.41,0-0.61,0l-1.97,0c-0.99,0-1.98,0-2.98,0c-0.03,0-0.06,0-0.1,0c0,0.05-0.01,0.09-0.01,0.14
			c-0.01,0.84-0.01,2.11-0.01,2.94l0,0.2c0,0.06,0,0.12,0,0.17c0.01,0.08,0.02,0.12,0.02,0.14c0.02,0.01,0.06,0.01,0.15,0.01
			c1.18,0.01,2.16,0.01,3.16,0.01c0.14,0,4.27-0.04,4.48-0.07c0.15-0.02,0.3-0.02,0.45-0.02h0.02c0.05,0,0.11,0.01,0.15,0.02h0.46
			v0.6c0.02,0.07,0.04,0.13,0.05,0.26C49.8,169.73,49.6,171.72,49.6,171.72z"/>
		<path class="st0" d="M75.12,156.73c-0.09,0.2-0.18,0.4-0.27,0.6c-0.13,0.29-0.27,0.59-0.39,0.89c-0.22,0.55-0.44,1.12-0.64,1.67
			c-0.07,0.2-0.15,0.39-0.22,0.59c-0.02,0.06-0.04,0.12-0.06,0.18c-0.04,0.12-0.08,0.23-0.13,0.35c-0.31,0.65-0.56,1.35-0.81,2.02
			c-0.11,0.29-0.22,0.6-0.33,0.89c-0.07,0.18-0.14,0.36-0.22,0.54c-0.07,0.18-0.14,0.35-0.21,0.53c-0.18,0.46-0.36,0.93-0.53,1.39
			c-0.21,0.56-0.43,1.12-0.64,1.67c-0.17,0.43-0.34,0.87-0.51,1.3l-0.02,0.05c-0.12,0.3-0.24,0.6-0.35,0.9l-0.23,0.58
			c0,0.01,0,0.01-0.01,0.02l-0.32,0.81h-3.19l-0.23-0.54c0,0,0,0,0,0c-0.01-0.02-0.02-0.03-0.02-0.05
			c-0.02-0.03-0.04-0.07-0.05-0.11c-0.08-0.2-0.16-0.39-0.24-0.59l-0.26-0.62c-0.23-0.53-0.46-1.06-0.69-1.57
			c-0.37-0.82-0.75-1.67-1.09-2.52c-0.27-0.65-0.56-1.31-0.85-1.95c-0.15-0.33-0.3-0.66-0.44-1c-0.26-0.6-0.53-1.21-0.79-1.82
			c-0.2-0.45-0.39-0.91-0.59-1.36c-0.16-0.37-0.33-0.74-0.49-1.11c-0.11-0.24-0.23-0.51-0.36-0.79c-0.18-0.39-0.36-0.79-0.52-1.15
			l-0.18-0.41h3.89l0.08,0.16c0.01,0.02,0.02,0.04,0.03,0.06c0.04,0.1,0.1,0.24,0.17,0.38c0.05,0.12,0.1,0.24,0.14,0.32l0.37,0.89
			c0.39,0.94,0.77,1.88,1.16,2.81c0.54,1.3,1.06,2.61,1.47,3.56c0.15,0.35,0.31,0.96,0.46,1.31c0.1,0.22,0.2,0.45,0.3,0.67
			c0.07,0.15,0.13,0.3,0.19,0.45c0.04,0.1,0.08,0.2,0.13,0.3c0.03-0.08,0.06-0.15,0.09-0.23c0.17-0.41,0.35-0.84,0.48-1.26
			c0.22-0.7,0.49-1.65,0.74-2.32l0.09-0.23c0.18-0.46,0.27-1.19,0.45-1.64c0.16-0.4,0.32-0.82,0.48-1.23
			c0.22-0.58,0.44-1.15,0.66-1.73c0.19-0.5,0.38-1.01,0.57-1.51c0.02-0.05,0.03-0.11,0.05-0.18c0.04-0.15,0.08-0.32,0.19-0.47
			l0.09-0.12h3.61l0.05,0.23C75.19,156.49,75.18,156.61,75.12,156.73z"/>
		<path class="st0" d="M97.52,171.72h-0.21c-0.27,0-0.48,0-0.67,0c-0.14,0-0.27,0-0.42,0c-0.52,0-1.04-0.01-1.56-0.01
			c-0.77-0.01-1.56-0.01-2.34-0.01c-0.51,0-1.03,0.01-1.54,0.01c-0.4,0-0.8,0.01-1.2,0.01c-0.43,0-0.86,0.01-1.29,0.01
			c-0.56,0-1.13,0.01-1.7,0.01c-0.14,0-0.28,0-0.42,0c-0.04,0-0.08,0-0.13,0h-0.7v-2.1l0,0c0-0.21,0-0.42,0-0.63
			c0-0.4,0-0.79,0-1.19c0-0.76,0-1.5,0.01-2.24c0-0.77,0-1.55,0.01-2.35c0-0.66,0-1.33,0-2c0-0.69,0-1.39,0-2.08
			c0-0.6,0-1.21,0.01-1.8v-1.18h0.4c0.12-0.03,0.23-0.03,0.31-0.03c0.02,0,0.04,0,0.06,0c0.61,0,1.22,0,1.84,0c0.46,0,0.93,0,1.39,0
			c1.61,0,5.39,0,7.01,0c0.43,0,0.72,0,0.79,0c0.07,0,0.51,0.02,0.51,0.02v0.27c0.03,0.08,0.01,1.03,0,1.26v1.62h-1.08v0
			c-0.32,0.01-0.63,0.01-0.93,0.01c-0.7,0-1.39,0-2.09,0l-1.56,0c-0.75,0-1.5,0-2.25-0.01c-0.21,0-0.43,0-0.66,0.01
			c-0.06,0-0.2,0.01-0.27,0.02c-0.01,0.07-0.05,2.66-0.01,2.86c0.32,0.02,0.73,0.02,1.04,0.02c0.15,0,0.22,0,0.37,0
			c0.43,0.01,0.88,0,1.3,0l0.27,0c0.27,0,0.54,0,0.81-0.01c0.28,0,0.56,0,0.84-0.01c0.37,0,0.73,0,1.11,0l0.9,0
			c0,0,0.07,1.52,0.02,1.86c0,0.02,0,0.02,0,0.02c0,0,0,0.01,0,0.01c0,0.06,0,0.12,0,0.19l0,0.06c0,0.12-0.01,0.25-0.04,0.38
			l-0.04,0.48h-0.98l0,0c-0.21,0-0.41,0-0.61,0l-1.97,0c-0.99,0-1.98,0-2.98,0c-0.03,0-0.06,0-0.1,0c0,0.05-0.01,0.09-0.01,0.14
			c-0.01,0.84-0.01,2.11-0.01,2.94l0,0.2c0,0.06,0,0.12,0,0.17c0.01,0.08,0.02,0.12,0.02,0.14c0.02,0.01,0.06,0.01,0.15,0.01
			c1.18,0.01,2.16,0.01,3.16,0.01c0.14,0,4.27-0.04,4.48-0.07c0.15-0.02,0.3-0.02,0.45-0.02h0.02c0.05,0,0.11,0.01,0.15,0.02h0.46
			v0.6c0.02,0.07,0.04,0.13,0.05,0.26C97.72,169.73,97.52,171.72,97.52,171.72z"/>
		<path class="st0" d="M122.41,171.27l0.32,0.46h-4.55l-0.08-0.07c-0.02-0.02-0.04-0.03-0.06-0.05c-0.45-0.44-0.92-0.88-1.36-1.3
			c-0.27-0.25-0.53-0.51-0.8-0.76c-0.16-0.15-0.31-0.3-0.47-0.45c-0.5-0.47-0.92-0.96-1.42-1.45c-0.25-0.25-0.36-0.29-0.54-0.31
			c-0.2,0.01-0.74,0.01-1.17,0.01c-0.2,0-0.42,0-0.59,0c0,0.02,0,0.05,0,0.08c-0.01,0.2-0.01,0.41-0.01,0.62c0,0.2,0,0.4-0.01,0.6
			c-0.02,0.74-0.04,1.53-0.07,2.49c0,0.09-0.02,0.18-0.03,0.25c0,0.02-0.01,0.04-0.01,0.06l-0.02,0.11l-0.08,0.07
			c-0.02,0.02-0.05,0.04-0.07,0.05l-0.07,0.05h-3.07l0.08-1.21l0,0c0-0.7,0.01-1.39,0.01-2.09c0-0.44,0.01-0.88,0.01-1.33
			c0-0.29,0-0.62,0-0.97c0-0.31,0.02-0.62,0.04-0.93c0.01-0.2,0.03-0.4,0.03-0.6c0.03-0.79,0.03-1.59,0.04-2.36
			c0-0.46,0.01-0.94,0.01-1.41c0.01-0.33,0.02-0.66,0.04-0.98c0.01-0.16,0.02-0.32,0.02-0.48l0-0.04c0-0.08,0.01-0.16,0-0.22
			c-0.04-0.45-0.01-0.9,0.01-1.34c0.02-0.41,0.04-0.84,0.01-1.27l-0.02-0.28l0.28-0.03c0.07-0.01,0.14-0.02,0.2-0.02
			c0.12-0.01,0.22-0.03,0.32-0.03h0.01c0.37,0,1.11,0,1.97,0h5.78c0.96,0.02,2.07,0.35,2.98,0.89c1.13,0.67,1.93,1.61,2.37,2.77
			c0.41,1.08,0.48,2.2,0.22,3.34c-0.16,0.71-0.51,1.4-1.06,2.11c-0.59,0.76-1.35,1.34-2.27,1.72h0c-0.46,0.2-0.9,0.31-1.32,0.36
			c0.19,0.19,0.4,0.36,0.5,0.44c0.04,0.04,0.09,0.07,0.14,0.11c0.1,0.07,0.21,0.15,0.31,0.26c0.23,0.25,0.48,0.47,0.75,0.7
			c0.09,0.07,0.17,0.15,0.25,0.22c0.67,0.59,1.34,1.19,1.98,1.78l0.28,0.25c0.01,0.01,0.02,0.01,0.02,0.02
			C122.31,171.16,122.37,171.21,122.41,171.27z M117.74,164.32c0.63-0.24,1.1-0.77,1.41-1.39c0.43-0.89,0.37-1.72-0.18-2.45
			c-0.36-0.47-0.89-0.79-1.57-0.93c-0.33-0.07-0.67-0.11-1.03-0.12c-1.36-0.02-2.74-0.03-4.07-0.04l-0.36,0c-0.03,0-0.06,0-0.1,0.01
			c-0.05,0.49-0.05,0.99-0.05,1.47c0,0.44,0,0.9-0.04,1.35c-0.04,0.52-0.03,1.19-0.02,1.77c0,0.19,0.01,0.37,0.01,0.54
			c0.25,0.01,0.5,0,0.77-0.02c0.24-0.01,0.49-0.03,0.75-0.02c0.83,0.02,1.8,0.04,2.79,0.02c0.36-0.01,0.74-0.05,1.11-0.09
			c0.13-0.01,0.25-0.03,0.38-0.04c0.05-0.01,0.11-0.03,0.18-0.06L117.74,164.32z"/>
		<path class="st0" d="M146.95,171.73c-0.22,0-0.48,0-0.74,0c-0.34,0-0.68,0-0.95,0h-0.72l-0.08-0.2c-0.03-0.04-0.05-0.08-0.06-0.13
			c-0.19-0.6-0.51-1.42-0.97-2.44c-0.08-0.17-0.13-0.35-0.18-0.51c-0.04-0.12-0.07-0.14-0.19-0.14c-0.7,0.01-1.42,0-2.14-0.01
			c-0.29-0.01-0.59-0.02-0.88-0.03c-0.25-0.01-0.51-0.02-0.76-0.03c-0.32-0.01-0.65-0.01-0.97-0.01c-0.31,0-0.61-0.01-0.92-0.01
			c-0.14,0-0.19,0.03-0.24,0.16c-0.12,0.28-0.25,0.6-0.38,0.91c-0.13,0.31-0.26,0.62-0.38,0.9c-0.08,0.2-0.16,0.41-0.24,0.61
			l-0.37,0.95l-0.49,0c-0.03,0-0.06,0-0.08,0c-0.07,0-0.15,0-0.24,0h0c-0.45-0.01-1.16,0-2.13,0h0l0,0h-0.55l0.25-0.67
			c0.16-0.46,0.54-1.37,1.38-3.32c0.24-0.56,0.45-1.05,0.55-1.3c0.2-0.49,0.41-0.97,0.62-1.44c0.25-0.57,0.51-1.15,0.74-1.74
			c0.09-0.23,0.19-0.46,0.29-0.67l0.03-0.06c0.14-0.31,0.28-0.63,0.43-0.94c0.26-0.58,0.54-1.18,0.8-1.77
			c0.25-0.56,0.49-1.13,0.72-1.68c0.12-0.28,0.23-0.55,0.35-0.83c0.09-0.2,0.18-0.41,0.27-0.62l0.2-0.46l0.16-0.02
			c0.05-0.01,0.1-0.01,0.14-0.02c0.09-0.01,0.17-0.03,0.26-0.03c0.5,0,1.01,0,1.5,0.01l0.14,0l0.6,0l0.09,0.19
			c0.09,0.1,0.16,0.24,0.24,0.46l0.06,0.17c0.16,0.45,0.34,0.91,0.52,1.36c0.28,0.69,0.57,1.39,0.85,2.06
			c0.32,0.76,0.64,1.55,0.96,2.32c0.24,0.59,0.48,1.2,0.71,1.78c0.22,0.54,0.44,1.11,0.66,1.66c0.24,0.58,0.48,1.16,0.73,1.73
			c0.1,0.22,0.19,0.45,0.28,0.67c0.07,0.17,0.14,0.34,0.22,0.51c0.09,0.2,0.17,0.41,0.26,0.61c0.17,0.4,0.34,0.82,0.51,1.24
			l0.33,0.82H146.95z M142.15,165.32c-0.04-0.09-0.07-0.18-0.11-0.27c-0.15-0.37-0.31-0.75-0.47-1.13c-0.08-0.2-0.16-0.4-0.24-0.6
			c-0.12-0.32-0.96-3.19-1.06-3.42c-0.13,0.27-1.64,4.57-1.86,5.08c-0.06,0.14-0.1,0.24-0.12,0.31c0.07,0.01,0.18,0.01,0.32,0.01
			c0.77,0.01,1.89,0.01,2.65,0.02l0.74,0.01C142.05,165.32,142.1,165.32,142.15,165.32z"/>
		<path class="st0" d="M172.69,171.72h-0.88c-0.74,0-0.67-0.01-1.2-0.01c-0.08,0-0.15-0.02-0.21-0.04
			c-0.02-0.01-0.05-0.02-0.07-0.02l-0.19-0.05c0,0-0.44-1.06-0.45-1.2c0-0.01,0-0.01,0-0.02c-0.02,0.01-0.04,0.01-0.05,0.03
			c-1.33,1.16-2.46,1.37-3.14,1.48c-0.56,0.09-0.93,0.15-1.51,0.15c-0.04,0-0.08,0-0.11,0c-1.38,0-2.61-0.32-3.83-0.95
			c-0.85-0.44-1.61-0.95-2.33-1.74c-0.38-0.42-0.73-0.91-1.06-1.5c-0.5-0.9-0.81-2-0.94-3.1c-0.05-0.41-0.05-0.84-0.02-1.34
			c0.12-1.62,0.65-3.04,1.58-4.23c0.64-0.82,1.27-1.41,1.98-1.87c1.1-0.7,2.17-1.13,3.28-1.3c0.87-0.13,1.81-0.25,2.75-0.17
			c0.8,0.06,1.6,0.24,2.46,0.56c0.73,0.27,1.37,0.66,1.94,1.06c0.35,0.24,0.62,0.48,0.84,0.75c0.09,0.11,0.2,0.22,0.32,0.34
			c0.06,0.06,0.12,0.12,0.18,0.18l0.17,0.17l-0.14,0.2c-0.18,0.25-0.37,0.45-0.57,0.65c-0.07,0.07-0.14,0.14-0.21,0.22
			c-0.23,0.25-0.36,0.39-0.56,0.6h0l-0.76,0.75l-0.56-0.64c0,0,0,0,0,0l-0.06-0.07c-0.07-0.08-0.14-0.16-0.21-0.23
			c-0.75-0.73-1.75-1.12-2.95-1.26c-0.68-0.08-1.52-0.04-2.28,0.09c-0.97,0.17-1.92,0.67-2.48,1.33c-0.09,0.11-0.2,0.2-0.29,0.3
			l-0.03,0.03c-0.38,0.36-0.43,0.78-0.69,1.3c-0.18,0.36-0.25,0.67-0.26,1.17l0,0.04c-0.04,0.24-0.04,0.47-0.04,0.67l0,0.09
			c-0.01,0.99,0.13,2.08,0.87,3.01c0.92,1.15,2.14,2.03,3.65,2.11c1.01,0.05,1.97,0.02,2.73-0.28c0.76-0.3,1.32-0.67,1.85-1.31
			c0.29-0.36,0.45-1.21,0.42-1.47c-0.22-0.02-0.61-0.02-0.85-0.01c-0.27,0-0.54,0.01-0.81-0.02c-0.28-0.03-0.56-0.02-0.86-0.01
			c-0.25,0.01-0.51,0.02-0.78,0c-0.39-0.03-0.78-0.05-1.19-0.07c-0.18-0.01-0.36-0.02-0.55-0.03l-0.21-0.01l-0.06-0.2
			c-0.01-0.04-0.02-0.07-0.04-0.11c-0.04-0.11-0.08-0.23-0.08-0.37c0-0.63,0.02-1.1,0.03-1.66c0-0.09,0.03-0.17,0.06-0.25
			c0.01-0.04,0.03-0.08,0.04-0.12l0.06-0.22l0.23,0.01c0.22,0.01,0.43,0.02,0.64,0.03c0.46,0.03,0.89,0.05,1.32,0.02
			c0.37-0.03,0.73-0.01,1.08,0.01c0.29,0.02,0.56,0.03,0.83,0.02c0.67-0.02,1.33-0.01,1.98,0c0.2,0,0.4,0,0.59,0
			c0.43-0.01,0.88-0.01,1.33,0.04l0.17,0.02l0.07,0.16c0.1,0.22,0.09,0.43,0.08,0.6c0,0.06-0.01,0.13,0,0.18
			c0.01,0.21,0.02,0.43,0,0.66c-0.02,0.19-0.01,0.38-0.01,0.58c0.01,0.3,0.01,0.6-0.05,0.92c-0.01,0.07,0,0.16,0.02,0.27
			c0.02,0.1,0.04,0.22,0.04,0.35c-0.01,0.46,0,0.94,0,1.4c0,0.16,0,0.32,0.01,0.48c0,0.28-0.01,0.53-0.02,0.78L172.69,171.72z"/>
		<path class="st0" d="M195.84,171.72h-0.21c-0.27,0-0.48,0-0.67,0c-0.14,0-0.27,0-0.42,0c-0.52,0-1.04-0.01-1.56-0.01
			c-0.77-0.01-1.56-0.01-2.34-0.01c-0.51,0-1.03,0.01-1.54,0.01c-0.4,0-0.8,0.01-1.2,0.01c-0.43,0-0.86,0.01-1.29,0.01
			c-0.56,0-1.13,0.01-1.7,0.01c-0.14,0-0.28,0-0.42,0c-0.04,0-0.08,0-0.13,0h-0.7v-2.1l0,0c0-0.21,0-0.42,0-0.63
			c0-0.4,0-0.79,0-1.19c0-0.76,0-1.5,0.01-2.24c0-0.77,0-1.55,0.01-2.35c0-0.66,0-1.33,0-2c0-0.69,0-1.39,0-2.08
			c0-0.6,0-1.21,0.01-1.8v-1.18h0.4c0.12-0.03,0.23-0.03,0.31-0.03c0.02,0,0.04,0,0.06,0c0.61,0,1.22,0,1.84,0c0.46,0,0.93,0,1.39,0
			c1.61,0,5.39,0,7.01,0c0.43,0,0.72,0,0.79,0c0.07,0,0.51,0.02,0.51,0.02v0.27c0.03,0.08,0.01,1.03,0,1.26v1.62h-1.08v0
			c-0.32,0.01-0.63,0.01-0.93,0.01c-0.7,0-1.39,0-2.09,0l-1.56,0c-0.75,0-1.5,0-2.25-0.01c-0.21,0-0.43,0-0.66,0.01
			c-0.06,0-0.2,0.01-0.27,0.02c-0.01,0.07-0.05,2.66-0.01,2.86c0.32,0.02,0.73,0.02,1.04,0.02c0.15,0,0.22,0,0.37,0
			c0.43,0.01,0.88,0,1.3,0l0.27,0c0.27,0,0.54,0,0.81-0.01c0.28,0,0.56,0,0.84-0.01c0.37,0,0.73,0,1.11,0l0.9,0
			c0,0,0.07,1.52,0.02,1.86c0,0.02,0,0.02,0,0.02c0,0,0,0.01,0,0.01c0,0.06,0,0.12,0,0.19l0,0.06c0,0.12-0.01,0.25-0.04,0.38
			l-0.04,0.48h-0.98l0,0c-0.21,0-0.41,0-0.61,0l-1.97,0c-0.99,0-1.98,0-2.98,0c-0.03,0-0.06,0-0.1,0c0,0.05-0.01,0.09-0.01,0.14
			c-0.01,0.84-0.01,2.11-0.01,2.94l0,0.2c0,0.06,0,0.12,0,0.17c0.01,0.08,0.02,0.12,0.02,0.14c0.02,0.01,0.06,0.01,0.15,0.01
			c1.18,0.01,2.16,0.01,3.16,0.01c0.14,0,4.27-0.04,4.48-0.07c0.15-0.02,0.3-0.02,0.45-0.02h0.02c0.05,0,0.11,0.01,0.15,0.02h0.46
			v0.6c0.02,0.07,0.04,0.13,0.05,0.26C196.04,169.73,195.84,171.72,195.84,171.72z"/>
		<path class="st0" d="M239.36,159.37l-0.12,0.17c-0.02,0.03-0.03,0.05-0.05,0.07c-0.03,0.06-0.07,0.12-0.14,0.17
			c-0.45,0.37-0.91,0.75-1.37,1.13h0l-0.12,0.1c-0.07,0.05-0.14,0.11-0.21,0.17c0,0-0.01,0-0.01,0.01l-0.4,0.32l-0.28-0.27
			c-0.05-0.03-0.1-0.07-0.14-0.11c-0.07-0.08-0.14-0.16-0.21-0.23c-0.04-0.05-0.08-0.09-0.12-0.14c-0.73-0.8-1.66-1.3-2.85-1.5
			c-0.48-0.08-0.95-0.13-1.41-0.14c-1.43-0.03-2.68,0.42-3.74,1.31c-0.37,0.32-0.51,0.7-0.76,1.14c-0.42,0.75-0.63,1.51-0.62,2.24
			c0.01,0.96,0.23,1.78,0.68,2.51c0.6,0.96,1.26,1.64,2.37,2.06c0.83,0.31,1.61,0.45,2.39,0.43c1.34-0.04,2.44-0.4,3.36-1.1
			c0.13-0.1,0.26-0.22,0.39-0.35c0.07-0.07,0.15-0.14,0.22-0.21c0.03-0.03,0.06-0.05,0.09-0.07l0.32-0.24l0.2,0.17
			c0.08,0.03,0.17,0.08,0.24,0.16c0.16,0.17,0.33,0.34,0.49,0.5c0.39,0.38,0.79,0.77,1.12,1.25l0.1,0.14l-0.07,0.15
			c-0.15,0.32-0.4,0.53-0.62,0.72l-0.01,0.01c-1.17,0.99-2.42,1.62-3.85,1.92c-0.67,0.14-1.36,0.21-2.04,0.21
			c-0.19,0-0.39-0.01-0.58-0.02c-0.72-0.04-1.48-0.19-2.45-0.47c-2.17-0.62-3.83-1.99-4.94-4.05c-0.44-0.81-0.69-1.65-0.77-2.48
			c-0.01-0.08-0.01-0.17-0.02-0.25c-0.03-0.34-0.06-0.69-0.07-1.04c-0.02-0.94,0.18-1.87,0.66-3.01c0.35-0.84,0.87-1.62,1.54-2.31
			c0.59-0.6,1.24-1.11,1.94-1.49c0.84-0.46,1.57-0.73,2.3-0.86c0.52-0.09,1.06-0.18,1.59-0.22c1.62-0.12,3.24,0.2,4.94,0.97
			c1.19,0.54,2.16,1.34,2.89,2.38L239.36,159.37z"/>
		<path class="st0" d="M248.95,165.47c-0.14-0.77-0.24-1.6-0.09-2.46c0.03-0.14,0.04-0.28,0.07-0.42c0.04-0.3,0.09-0.61,0.18-0.92
			c0.37-1.21,1-2.3,1.89-3.24c0.4-0.42,0.85-0.81,1.34-1.15c0.81-0.56,1.74-0.95,2.83-1.19c0.49-0.11,1-0.21,1.43-0.24
			c0.45-0.03,0.78-0.05,1.25-0.01c0.88,0.07,1.92,0.2,2.93,0.62c0.06,0.03,0.13,0.05,0.19,0.08c0.22,0.09,0.45,0.18,0.67,0.29
			c1.62,0.83,2.84,2.08,3.62,3.73c0.18,0.37,0.33,0.76,0.47,1.15c0.05,0.16,0.07,0.31,0.09,0.46c0.01,0.08,0.02,0.16,0.04,0.23
			c0.09,0.41,0.19,0.99,0.18,1.4c0.01,0.91-0.09,1.65-0.3,2.35c-0.22,0.71-0.54,1.42-0.96,2.11c-0.42,0.69-0.98,1.25-1.47,1.71
			c-0.27,0.25-0.58,0.49-0.96,0.73c-0.7,0.44-1.65,0.97-2.78,1.17c-0.7,0.12-1.38,0.18-2.05,0.18c-1.15,0-2.24-0.18-3.31-0.54
			c-0.49-0.17-0.95-0.4-1.36-0.63c-0.88-0.48-1.64-1.13-2.25-1.91C249.72,167.86,249.17,166.67,248.95,165.47z M252.59,165.87
			c0.5,1.12,1.33,2.08,2.54,2.6c0.7,0.3,1.5,0.43,2.58,0.44l0.02,0c0.89,0.07,1.89-0.35,2.73-0.87c1.31-0.82,1.98-1.92,2.16-3.28
			c0.12-0.89,0.07-1.61-0.18-2.25c-0.52-1.36-1.33-2.26-2.5-2.76c-0.13-0.05-0.26-0.11-0.39-0.16c-0.15-0.06-0.3-0.12-0.45-0.18
			c-0.45-0.19-0.96-0.29-1.61-0.3c-0.04,0-0.08,0-0.12,0c-0.89,0-1.79,0.21-2.76,0.63c-0.07,0.03-0.13,0.06-0.17,0.09
			c-0.58,0.37-1.03,0.79-1.38,1.28c-0.59,0.82-0.9,1.74-0.93,2.72C252.12,164.48,252.27,165.15,252.59,165.87z"/>
		<path class="st0" d="M276.09,171.73v-3.73h3.99v3.73H276.09z"/>
	</g>
</g>
</svg>
